<mxfile host="app.diagrams.net" modified="2021-09-13T06:44:39.381Z" agent="5.0 (X11; Linux x86_64) AppleWebKit/537.36 (KHTML, like Gecko) Chrome/93.0.4577.63 Safari/537.36" etag="F6fjS1cbgMxf3-Zvhp0y" version="15.2.1" type="github">
  <diagram name="Page-1" id="12e1b939-464a-85fe-373e-61e167be1490">
    <mxGraphModel dx="1422" dy="756" grid="1" gridSize="10" guides="1" tooltips="1" connect="1" arrows="1" fold="1" page="1" pageScale="1.5" pageWidth="1169" pageHeight="826" background="none" math="0" shadow="0">
      <root>
        <mxCell id="0" />
        <mxCell id="1" parent="0" />
        <mxCell id="60da8b9f42644d3a-2" value="" style="whiteSpace=wrap;html=1;rounded=1;shadow=0;strokeWidth=8;fontSize=20;align=center;fillColor=#FED217;strokeColor=#FFFFFF;" parent="1" vertex="1">
          <mxGeometry x="750" y="280" width="184" height="415" as="geometry" />
        </mxCell>
        <mxCell id="qfdBdv0h7WUqeyIMPIq0-1" value="" style="edgeStyle=orthogonalEdgeStyle;rounded=0;orthogonalLoop=1;jettySize=auto;html=1;" edge="1" parent="1" source="60da8b9f42644d3a-3" target="60da8b9f42644d3a-4">
          <mxGeometry relative="1" as="geometry" />
        </mxCell>
        <mxCell id="60da8b9f42644d3a-3" value="Patient(患者)" style="text;html=1;strokeColor=none;fillColor=none;align=center;verticalAlign=middle;whiteSpace=wrap;rounded=0;shadow=0;fontSize=20;fontColor=#000000;fontStyle=1" parent="1" vertex="1">
          <mxGeometry x="774" y="300" width="140" height="45" as="geometry" />
        </mxCell>
        <mxCell id="60da8b9f42644d3a-4" value="姓名&lt;br&gt;性别" style="text;html=1;strokeColor=none;fillColor=none;align=left;verticalAlign=top;whiteSpace=wrap;rounded=0;shadow=0;fontSize=14;fontColor=#000000;" parent="1" vertex="1">
          <mxGeometry x="787" y="370" width="110" height="300" as="geometry" />
        </mxCell>
        <mxCell id="60da8b9f42644d3a-6" value="" style="line;strokeWidth=2;html=1;rounded=0;shadow=0;fontSize=27;align=center;fillColor=none;strokeColor=#FFFFFF;" parent="1" vertex="1">
          <mxGeometry x="770" y="350" width="144" height="10" as="geometry" />
        </mxCell>
      </root>
    </mxGraphModel>
  </diagram>
</mxfile>
